<?xml version="1.0" standalone="no"?>
<!DOCTYPE svg PUBLIC "-//W3C//DTD SVG 20010904//EN"
 "http://www.w3.org/TR/2001/REC-SVG-20010904/DTD/svg10.dtd">
<svg version="1.0" xmlns="http://www.w3.org/2000/svg"
 width="1200.000000pt" height="1200.000000pt" viewBox="0 0 1200.000000 1200.000000"
 preserveAspectRatio="xMidYMid meet">
<metadata>
Created by potrace 1.14, written by Peter Selinger 2001-2017
</metadata>
<g transform="translate(0.000000,1200.000000) scale(0.100000,-0.100000)"
fill="#000000" stroke="none">
<path d="M2129 8088 c-1 -5 -2 -13 -3 -18 0 -6 -8 -15 -16 -20 -8 -5 -10 -10
-5 -10 6 0 -1 -10 -15 -21 -14 -11 -19 -18 -11 -14 9 5 8 -1 -4 -19 -10 -14
-21 -26 -26 -26 -5 0 -8 -4 -6 -9 1 -5 -7 -17 -18 -26 -11 -9 -13 -13 -5 -9
14 7 0 -14 -37 -54 -7 -7 -20 -28 -29 -47 -9 -19 -21 -32 -27 -28 -6 3 -7 1
-3 -5 4 -6 -2 -20 -14 -32 -11 -11 -20 -22 -20 -25 -1 -18 -14 -34 -23 -28 -5
3 -7 1 -3 -5 3 -6 -9 -25 -26 -43 -18 -18 -27 -29 -19 -25 8 6 7 0 -4 -18 -10
-14 -21 -26 -26 -26 -5 0 -8 -4 -7 -9 2 -5 -6 -17 -17 -26 -11 -9 -13 -13 -5
-9 8 4 5 -4 -7 -18 -13 -13 -23 -30 -23 -36 0 -7 -7 -15 -15 -18 -8 -4 -12
-10 -9 -15 3 -5 -2 -12 -10 -15 -9 -3 -13 -10 -10 -15 3 -5 1 -9 -4 -9 -5 0
-17 -15 -27 -34 -11 -19 -23 -32 -27 -30 -5 3 -8 2 -7 -3 3 -12 -13 -47 -25
-55 -6 -4 -11 -12 -11 -17 0 -6 -9 -17 -20 -26 -11 -9 -13 -13 -5 -9 13 7 13
6 0 -12 -27 -35 -49 -54 -65 -54 -8 0 -15 4 -15 10 0 5 -4 9 -9 7 -5 -1 -17 7
-26 18 -9 11 -14 13 -10 5 4 -8 -2 -5 -13 7 -11 12 -22 19 -26 16 -3 -4 -6 -1
-6 5 0 7 -7 12 -15 12 -8 0 -15 5 -15 10 0 6 -6 10 -14 10 -7 0 -21 10 -30 23
-9 12 -14 16 -10 9 5 -11 2 -11 -14 -1 -12 7 -18 17 -15 23 3 5 1 6 -4 3 -6
-4 -23 6 -39 21 -15 15 -24 20 -20 12 4 -8 -1 -5 -11 6 -11 12 -29 25 -41 28
-12 4 -20 12 -16 17 3 5 2 9 -3 8 -21 -4 -34 2 -27 13 4 6 3 8 -3 5 -6 -4 -23
6 -39 21 -15 15 -24 20 -20 12 4 -8 -5 -1 -19 15 -15 17 -24 23 -19 15 7 -13
6 -13 -12 0 -10 8 -27 23 -37 35 -10 11 -15 13 -11 5 8 -15 -33 14 -48 35 -4
6 -8 6 -8 1 0 -4 -9 2 -21 15 -11 13 -17 17 -13 10 4 -9 -6 -6 -24 8 -18 12
-32 27 -32 32 0 6 -4 7 -10 4 -5 -3 -10 -2 -10 2 0 5 -17 17 -37 28 -21 11
-49 31 -62 45 -13 14 -21 19 -16 11 5 -9 -2 -7 -18 5 -15 10 -27 22 -27 27 0
4 -6 7 -14 7 -8 0 -18 5 -22 12 -5 7 -3 8 6 3 9 -6 11 -4 6 4 -5 7 -11 10 -14
7 -3 -3 -10 -1 -17 4 -8 6 -12 6 -12 -3 -1 -12 -6 -37 -17 -84 -18 -71 -30
-137 -28 -145 1 -5 -2 -8 -8 -8 -5 0 -7 -7 -4 -15 4 -8 2 -21 -4 -28 -5 -6
-10 -19 -10 -27 -1 -19 -8 -58 -17 -90 -4 -14 -8 -32 -9 -40 -2 -8 -6 -28 -9
-45 -4 -16 -10 -41 -13 -55 -7 -32 -12 -54 -14 -60 -1 -3 -3 -9 -5 -15 -1 -5
-3 -12 -4 -15 -4 -9 -13 -65 -12 -82 0 -10 -5 -20 -10 -23 -5 -4 -7 -11 -4
-16 4 -5 3 -15 -2 -21 -4 -7 -8 -17 -9 -23 -1 -5 -5 -30 -9 -55 -4 -24 -9 -49
-13 -55 -3 -5 -7 -16 -8 -25 -2 -8 -5 -27 -8 -42 -9 -44 -16 -76 -20 -100 -3
-13 -7 -34 -11 -48 -3 -14 -8 -32 -10 -40 -2 -8 -4 -15 -5 -15 -2 0 -3 -9 -14
-78 -3 -21 -8 -42 -11 -47 -6 -10 -13 -36 -20 -80 -2 -14 -7 -36 -11 -50 -3
-14 -6 -33 -6 -42 1 -10 -4 -20 -9 -23 -5 -4 -7 -11 -3 -16 3 -5 0 -16 -6 -24
-7 -8 -10 -15 -7 -15 3 0 -2 -28 -10 -62 -8 -35 -16 -72 -18 -83 -1 -11 -3
-20 -5 -20 -1 0 -3 -9 -5 -20 -6 -32 -13 -67 -20 -100 -4 -16 -8 -35 -9 -42
-1 -7 -5 -15 -8 -19 -4 -3 -4 -12 -2 -19 3 -7 1 -16 -4 -19 -6 -3 -8 -15 -5
-26 3 -11 1 -20 -4 -20 -5 0 -9 -8 -9 -17 -1 -10 -4 -31 -8 -48 -4 -16 -9 -39
-10 -50 -2 -11 -4 -20 -6 -20 -1 0 -3 -9 -5 -20 -1 -11 -5 -32 -9 -47 -6 -26
-8 -37 -21 -105 -3 -16 -7 -37 -9 -48 -13 -86 -19 -105 -33 -105 -22 0 -12
-43 12 -46 11 -2 24 -9 30 -17 5 -8 12 -14 15 -15 22 -4 39 -16 33 -25 -3 -5
-1 -7 5 -3 6 3 17 -1 25 -9 9 -8 20 -15 26 -15 6 0 11 -4 11 -10 0 -5 7 -10
15 -10 8 0 15 -4 15 -10 0 -5 7 -10 15 -10 8 0 15 -4 15 -10 0 -5 7 -10 16
-10 9 0 12 -5 8 -12 -4 -6 -3 -8 3 -5 6 4 21 -2 33 -13 12 -11 31 -22 41 -25
11 -4 17 -11 13 -16 -3 -5 -2 -9 3 -8 21 4 34 -2 27 -13 -4 -6 -3 -8 4 -4 6 3
16 0 24 -7 7 -7 21 -16 31 -20 9 -3 17 -11 17 -17 0 -6 4 -9 9 -6 5 3 20 -5
34 -18 14 -13 28 -21 31 -18 3 3 6 0 6 -6 0 -7 6 -12 14 -12 8 0 21 -8 28 -17
7 -10 20 -19 28 -21 8 -2 23 -12 33 -23 10 -10 23 -19 30 -19 7 0 27 -14 44
-30 18 -17 36 -31 40 -32 12 -1 98 -61 101 -70 2 -4 8 -6 13 -2 5 3 12 -2 15
-10 3 -9 10 -13 15 -10 5 3 12 -2 15 -10 3 -9 12 -16 20 -16 8 0 14 -4 14 -10
0 -5 3 -9 8 -8 15 3 42 -15 35 -25 -3 -5 -2 -7 4 -4 5 4 19 -3 31 -13 12 -11
26 -20 32 -20 5 0 10 -5 10 -11 0 -5 4 -8 9 -4 6 3 14 -2 19 -11 5 -9 11 -15
13 -14 10 6 68 -38 61 -45 -4 -5 -2 -5 4 -2 6 3 21 -3 32 -14 12 -11 22 -17
22 -14 0 4 7 0 15 -7 33 -30 45 -38 55 -38 5 0 10 -5 10 -11 0 -5 5 -7 10 -4
6 3 13 -1 16 -9 3 -9 10 -13 15 -10 5 3 9 1 9 -4 0 -5 13 -15 30 -22 16 -7 27
-17 23 -23 -3 -5 -2 -7 4 -4 5 4 19 -2 30 -13 12 -10 24 -16 27 -13 3 4 6 2 6
-3 0 -5 16 -18 35 -28 19 -11 35 -23 35 -28 0 -5 5 -6 10 -3 6 3 13 -1 16 -9
3 -9 10 -14 14 -11 5 3 13 -3 19 -12 6 -10 11 -13 11 -8 0 6 10 -1 21 -15 11
-14 17 -19 13 -11 -5 9 2 8 19 -5 15 -10 27 -22 27 -26 0 -5 7 -8 15 -8 8 0
15 -4 15 -10 0 -5 7 -10 15 -10 8 0 15 -4 15 -10 0 -5 7 -10 15 -10 8 0 15 -4
15 -10 0 -5 7 -10 15 -10 8 0 15 -3 15 -8 0 -4 13 -13 28 -20 16 -6 37 -20 48
-30 10 -10 26 -21 34 -25 8 -4 60 -36 114 -72 73 -48 105 -63 120 -59 12 4 23
10 26 13 12 17 80 63 80 55 0 -5 5 -1 11 9 6 9 14 15 19 12 4 -3 10 2 14 10 3
8 11 15 18 15 8 0 21 9 31 20 10 12 23 18 29 14 6 -4 8 -3 4 4 -3 6 2 13 13
17 10 3 29 14 41 25 12 11 28 17 34 13 6 -3 8 -3 4 2 -8 8 81 72 94 68 5 -2 8
1 8 6 0 5 17 20 38 32 20 13 52 35 71 50 19 16 39 25 44 22 6 -3 8 -2 5 3 -3
5 10 19 29 31 19 13 31 17 28 10 -4 -6 2 -3 12 9 10 11 35 31 56 43 21 13 44
30 52 38 8 8 15 12 15 9 0 -3 8 1 18 9 9 8 20 15 25 15 4 0 16 8 26 18 36 32
51 43 51 36 0 -3 9 4 21 17 11 13 18 17 14 9 -3 -8 2 -5 11 8 9 12 23 22 30
22 8 0 14 5 14 12 0 6 3 9 6 5 3 -3 11 -2 18 4 28 23 147 109 152 109 3 0 12
7 21 15 8 8 19 12 25 9 7 -4 8 -2 4 4 -7 11 6 17 27 13 5 -1 6 3 3 8 -6 9 22
26 37 22 5 -1 6 3 3 8 -6 9 11 20 26 17 4 0 14 8 23 19 9 11 13 13 9 5 -4 -9
2 -7 13 5 27 26 74 60 84 60 4 0 15 9 23 20 9 11 16 17 16 13 0 -5 9 1 20 12
12 12 26 18 32 14 6 -4 8 -3 5 2 -3 6 3 16 15 23 16 10 19 10 13 -1 -4 -7 3
-2 14 12 11 14 21 21 21 15 0 -5 5 -2 11 8 6 9 14 15 20 12 5 -4 9 -1 9 5 0
12 101 76 113 72 5 -1 6 2 2 8 -6 9 8 14 28 11 5 -1 6 3 3 8 -4 5 3 12 14 16
11 3 20 11 20 17 0 6 3 8 7 5 3 -4 12 1 20 11 9 11 12 11 7 2 -4 -8 3 -5 14 7
12 12 35 30 52 39 16 10 30 22 30 27 0 4 5 5 10 2 6 -3 13 1 16 9 3 9 15 16
26 16 10 0 16 5 13 10 -5 9 1 12 21 9 4 0 10 5 15 13 5 7 14 13 21 13 15 0 17
21 5 55 -4 13 -11 43 -14 65 -3 22 -10 46 -15 52 -6 7 -8 19 -5 28 4 8 2 17
-4 21 -6 3 -8 11 -6 17 2 7 0 22 -4 35 -5 12 -11 34 -14 47 -8 38 -14 67 -21
95 -3 14 -7 34 -9 45 -2 11 -4 20 -5 20 -1 0 -3 7 -5 15 -2 8 -7 26 -10 40 -4
14 -8 34 -10 45 -2 11 -4 20 -5 20 -2 0 -5 15 -13 60 -3 17 -10 45 -16 64 -6
19 -8 37 -6 42 3 4 0 11 -6 14 -5 4 -8 13 -5 20 2 7 2 16 -2 19 -6 6 -10 21
-17 61 -2 11 -4 22 -6 25 -1 3 -3 10 -4 15 -2 6 -4 12 -5 15 -1 3 -3 12 -5 20
-2 8 -6 29 -10 45 -7 33 -14 68 -20 100 -2 11 -4 20 -5 20 -1 0 -3 7 -5 15 -2
8 -7 26 -10 40 -4 14 -8 38 -11 53 -2 16 -6 33 -10 38 -3 5 -7 19 -10 32 -4
22 -9 47 -21 97 -3 14 -7 32 -8 40 -1 8 -5 22 -8 30 -5 14 -14 51 -22 95 -2
11 -4 22 -6 25 -1 3 -3 10 -4 15 -2 6 -4 12 -5 15 -2 5 -3 10 -14 63 -22 102
-27 124 -42 180 -3 12 -7 31 -9 42 -2 11 -4 20 -5 20 -2 0 -6 18 -15 64 -3 19
-8 38 -11 42 -3 5 -7 23 -10 41 -10 59 -12 73 -14 73 -2 0 -10 33 -15 60 -2
11 -4 20 -5 20 -4 0 -12 42 -12 63 0 12 -4 22 -10 22 -5 0 -8 8 -7 18 1 9 0
20 -1 25 -1 4 -4 12 -5 17 -1 6 -4 11 -5 13 -3 2 -4 9 -14 76 -5 33 -16 55
-16 33 0 -7 -7 -12 -15 -12 -8 0 -15 -5 -15 -10 0 -6 -8 -14 -17 -17 -9 -4
-25 -15 -35 -25 -10 -10 -24 -16 -30 -12 -6 4 -8 3 -5 -3 4 -6 -9 -18 -28 -27
-19 -9 -35 -21 -35 -26 0 -6 -5 -10 -12 -10 -7 0 -25 -12 -41 -27 -17 -16 -26
-21 -22 -13 5 8 -7 0 -25 -17 -19 -18 -40 -33 -47 -33 -7 0 -13 -4 -13 -10 0
-5 -4 -10 -10 -10 -5 0 -19 -9 -30 -20 -12 -12 -25 -18 -30 -15 -6 4 -10 2
-10 -3 0 -5 -17 -22 -37 -38 -20 -15 -33 -21 -29 -13 4 8 -2 3 -13 -11 -11
-14 -21 -22 -21 -18 0 4 -12 -4 -26 -17 -15 -14 -31 -22 -37 -18 -5 3 -7 2 -4
-3 3 -6 -3 -16 -15 -23 -16 -10 -19 -10 -13 1 4 7 -2 4 -12 -7 -30 -34 -67
-62 -59 -45 4 8 -1 6 -11 -6 -10 -12 -33 -30 -50 -40 -18 -10 -33 -22 -33 -26
0 -4 -7 -8 -15 -8 -8 0 -15 -5 -15 -12 0 -6 -3 -9 -6 -5 -4 3 -14 -3 -23 -13
-22 -27 -81 -39 -81 -16 0 9 -4 16 -10 16 -5 0 -12 11 -16 25 -3 14 -11 25
-17 25 -6 0 -7 3 -4 7 4 3 -2 12 -13 20 -11 8 -20 21 -20 29 0 8 -5 14 -11 14
-5 0 -7 5 -4 10 3 6 1 10 -5 10 -5 0 -18 16 -27 35 -9 19 -21 35 -25 35 -5 0
-7 4 -4 9 3 5 -1 12 -10 15 -8 3 -13 10 -9 15 3 6 -3 14 -12 20 -10 6 -14 11
-9 11 5 0 -1 9 -14 20 -13 11 -20 20 -17 20 3 0 -5 12 -18 26 -14 15 -25 36
-25 46 0 11 -4 17 -9 13 -5 -3 -13 5 -17 17 -4 13 -10 25 -14 28 -11 8 -67 94
-68 104 0 5 -7 13 -16 18 -9 5 -14 13 -11 19 4 5 1 9 -4 9 -6 0 -11 4 -11 9 0
5 -13 23 -30 41 -16 18 -30 38 -30 46 0 8 -4 14 -8 14 -10 0 -37 51 -33 63 1
5 -2 6 -7 3 -5 -3 -15 7 -23 22 -8 15 -17 29 -20 32 -3 3 -11 14 -17 25 -6 11
-12 17 -13 13z"/>
<path d="M5670 7030 c-24 -10 -46 -22 -48 -29 -2 -6 -8 -9 -13 -5 -5 3 -9 1
-9 -4 0 -5 -12 -14 -26 -20 -16 -8 -22 -17 -18 -25 4 -6 4 -9 -1 -5 -11 11
-36 -12 -28 -25 3 -5 1 -7 -5 -3 -6 3 -19 -5 -29 -18 -59 -80 -78 -108 -75
-113 2 -3 0 -9 -5 -12 -19 -14 -52 -64 -47 -72 3 -5 1 -9 -4 -9 -13 0 -124
-248 -117 -260 4 -6 2 -10 -4 -10 -8 0 -34 -69 -46 -124 -1 -6 -5 -18 -8 -26
-13 -30 -36 -144 -31 -152 3 -4 1 -8 -3 -8 -10 0 -32 -111 -28 -145 1 -14 -1
-25 -4 -25 -11 0 -18 -219 -11 -335 3 -46 36 -163 49 -175 3 -3 14 -18 23 -35
9 -16 25 -34 35 -40 10 -5 21 -14 25 -20 4 -5 8 -6 8 -1 0 5 6 3 14 -3 19 -16
102 -25 110 -12 4 6 12 8 19 6 24 -9 147 47 147 67 0 6 3 8 6 5 4 -4 21 3 38
15 31 22 38 28 106 87 19 17 38 31 42 31 5 0 8 3 8 8 0 4 36 45 80 91 44 47
80 90 80 96 0 5 9 16 20 23 12 7 18 17 15 23 -4 5 -1 8 7 7 7 -2 12 2 11 7 -1
6 7 12 19 12 15 2 18 -2 12 -15 -12 -28 -13 -237 -1 -279 6 -21 19 -50 30 -65
30 -46 59 -37 135 40 37 37 74 76 82 87 62 83 76 102 87 113 7 8 10 18 7 24
-4 6 -3 8 2 5 6 -3 16 3 23 15 10 16 10 19 -1 13 -7 -4 -2 2 12 13 14 12 27
18 29 16 3 -3 6 -44 7 -92 1 -48 4 -98 7 -112 19 -89 27 -111 38 -104 5 3 9 2
8 -3 -9 -51 38 -52 109 -2 22 16 59 109 44 109 -4 0 -2 4 3 8 15 10 46 93 39
103 -3 5 -1 9 5 9 8 0 21 25 20 40 0 3 11 27 25 54 14 27 23 53 20 58 -3 4 0
8 5 8 6 0 11 6 11 14 0 7 7 19 15 26 8 7 12 16 9 21 -3 5 4 9 15 9 24 0 25 -4
10 -32 -20 -36 -30 -261 -15 -338 7 -37 49 -80 77 -80 9 0 28 11 43 25 14 13
29 24 32 24 3 0 17 11 31 25 14 14 23 26 20 26 -3 0 5 12 18 26 33 36 100 137
97 147 -1 4 2 7 7 7 5 0 16 12 26 26 12 18 13 24 4 19 -8 -3 -7 -1 2 7 8 7 26
32 39 56 13 23 28 41 34 39 5 -2 11 -41 12 -88 2 -72 8 -124 14 -124 1 0 4
-13 6 -28 3 -15 10 -40 16 -55 6 -15 12 -33 14 -40 7 -38 94 -135 94 -106 0 3
7 1 15 -6 9 -7 22 -9 32 -5 10 5 24 7 31 6 6 -1 12 3 12 9 0 6 4 9 9 6 11 -7
87 53 83 66 -1 5 1 7 6 4 8 -5 97 100 97 115 0 4 7 14 16 21 16 12 62 78 84
119 5 11 13 19 18 19 4 0 5 5 2 10 -3 6 -1 10 5 10 6 0 8 6 4 13 -4 6 -4 9 1
5 4 -4 14 -3 22 4 11 9 13 5 11 -21 -1 -17 -6 -31 -10 -31 -4 0 -7 -3 -6 -7 0
-5 -2 -15 -5 -23 -19 -44 -56 -174 -52 -178 3 -3 1 -10 -4 -16 -6 -7 -12 -23
-15 -36 -3 -14 -9 -40 -15 -59 -6 -18 -10 -36 -9 -40 1 -3 -4 -25 -11 -49 -6
-23 -9 -47 -6 -52 3 -6 2 -10 -3 -10 -5 0 -9 -6 -10 -12 -5 -49 -11 -89 -16
-97 -3 -5 -8 -35 -10 -67 -3 -33 -8 -80 -12 -105 -6 -43 -4 -47 24 -67 17 -13
45 -22 66 -22 33 0 36 2 42 38 4 20 22 89 41 152 19 63 37 122 39 130 2 8 13
42 25 75 12 33 22 67 23 75 1 8 8 25 15 38 6 12 10 26 8 30 -3 4 0 12 7 17 14
13 48 16 40 4 -3 -5 2 -9 10 -9 8 0 19 -7 24 -16 5 -8 15 -17 23 -18 8 -2 21
-6 29 -9 22 -9 90 -4 90 6 0 4 4 6 10 2 13 -8 110 42 110 57 0 6 3 9 6 5 10
-10 74 44 67 57 -3 6 -2 8 2 3 12 -10 96 73 88 87 -3 6 -3 8 2 4 4 -4 23 9 42
30 43 47 77 92 67 92 -4 0 5 9 19 20 14 11 28 28 31 38 6 17 45 47 52 39 2 -2
-2 -23 -10 -45 -9 -23 -13 -42 -10 -42 2 0 0 -9 -6 -21 -18 -33 -30 -95 -45
-234 -5 -37 -1 -59 12 -85 16 -31 22 -35 53 -33 19 1 36 6 38 12 2 6 9 11 16
11 7 0 18 10 24 23 15 31 32 99 27 108 -3 4 -1 9 4 11 5 1 11 10 13 18 2 8 6
17 9 20 3 3 22 36 42 74 21 37 62 101 92 142 30 41 55 78 55 82 0 11 30 11 31
0 1 -4 2 -14 3 -20 1 -7 0 -17 -3 -23 -3 -5 -6 -19 -7 -30 -1 -11 -5 -40 -9
-65 -12 -83 -15 -105 -21 -175 -14 -165 -9 -195 30 -195 17 0 46 21 91 66 37
36 65 68 62 71 -3 2 2 13 11 24 9 11 16 22 15 24 -1 2 11 19 27 36 16 18 27
36 25 40 -3 4 2 10 11 13 9 4 14 9 11 12 -3 4 3 15 14 27 10 11 19 27 19 34 0
7 5 13 10 13 6 0 10 7 10 16 0 8 4 13 9 10 5 -3 11 1 15 9 3 8 10 15 16 15 13
0 9 -52 -4 -62 -18 -13 -9 -191 14 -250 19 -50 50 -95 50 -72 0 5 4 3 8 -3 12
-19 91 -40 138 -37 75 4 141 55 237 183 26 35 47 61 47 57 0 -4 26 11 58 33
76 53 92 67 92 76 0 4 11 16 25 27 14 11 22 25 18 31 -3 7 -3 9 2 5 7 -7 35
14 35 27 0 3 12 18 28 33 35 36 85 100 94 121 4 9 7 12 7 8 1 -11 71 80 71 92
0 5 9 13 20 16 11 4 18 10 16 14 -3 4 4 7 14 8 10 1 20 -7 23 -18 3 -10 1 -19
-5 -19 -6 0 -7 -7 -4 -15 3 -9 -1 -18 -10 -22 -8 -3 -13 -12 -10 -19 3 -8 2
-14 -3 -14 -8 0 -33 -70 -35 -100 -1 -9 -5 -21 -10 -28 -4 -6 -4 -12 0 -12 3
0 1 -7 -6 -15 -7 -8 -10 -22 -6 -30 3 -8 0 -15 -6 -15 -6 0 -9 -3 -5 -6 3 -3
2 -16 -3 -28 -7 -20 -16 -64 -25 -121 -2 -11 -6 -40 -10 -65 -4 -25 -9 -64
-10 -88 -1 -24 -5 -45 -8 -48 -3 -3 -2 -17 2 -32 6 -22 13 -27 42 -28 19 0 42
6 52 14 9 8 17 12 17 8 0 -11 39 13 81 51 21 19 36 39 33 44 -3 5 0 8 8 7 7
-2 12 3 11 9 -2 7 0 12 5 10 13 -4 133 140 134 160 0 4 2 10 5 13 4 3 3 -1 -1
-7 -4 -7 -5 -13 -2 -13 8 0 41 63 38 73 -1 5 2 6 8 2 5 -3 10 1 10 10 0 9 5
13 10 10 6 -3 10 0 10 8 0 7 7 14 16 14 12 0 14 -7 10 -26 -20 -81 -24 -293
-6 -299 5 -2 8 -8 5 -13 -7 -10 22 -70 39 -81 6 -4 19 -8 29 -8 25 0 79 39 71
51 -3 5 -1 8 4 7 10 -3 112 101 112 114 0 4 13 21 30 39 16 18 27 35 25 38 -3
2 4 11 15 18 11 8 18 18 15 23 -3 4 2 11 11 14 9 4 14 9 11 12 -2 3 6 17 19
31 13 14 21 30 17 36 -4 6 -1 7 6 3 8 -5 14 -1 18 12 8 30 31 16 26 -16 -2
-15 -5 -34 -7 -42 -1 -9 -5 -20 -8 -25 -7 -12 -8 -158 -1 -202 3 -19 9 -30 16
-26 6 3 7 1 3 -6 -8 -12 4 -26 41 -52 31 -22 84 -12 126 22 42 35 99 118 90
132 -3 6 -1 7 5 3 11 -6 13 -3 12 19 0 3 9 15 20 27 11 12 20 25 20 30 0 7 36
48 43 48 1 0 2 -57 2 -127 0 -125 0 -128 25 -140 15 -7 28 -9 36 -3 6 6 14 7
17 3 4 -3 7 -1 7 5 0 6 6 9 14 6 15 -6 98 74 90 87 -3 5 -1 9 4 9 12 0 68 89
64 102 -1 5 2 7 7 4 7 -5 22 17 22 34 0 3 7 9 15 13 8 4 14 13 14 18 0 6 7 17
15 26 8 8 12 20 8 26 -3 7 -3 9 1 5 7 -6 132 171 127 180 0 1 8 11 19 22 19
19 40 58 46 88 5 23 -34 12 -52 -15 -10 -16 -17 -31 -16 -35 1 -5 -2 -8 -7 -8
-10 0 -86 -99 -86 -111 0 -4 -4 -11 -9 -16 -6 -5 -6 -2 -1 7 4 8 -1 6 -12 -5
-11 -11 -19 -22 -17 -24 2 -2 -6 -13 -19 -23 -12 -11 -22 -23 -22 -28 0 -4
-19 -26 -43 -49 -23 -22 -39 -41 -35 -41 10 -1 -29 -24 -43 -26 -12 -2 -12 25
0 44 4 6 4 17 1 22 -3 6 -2 10 3 10 5 0 15 19 22 43 8 23 17 47 20 52 9 12 24
67 22 78 -1 4 3 7 9 7 5 0 7 5 4 10 -3 6 -2 10 3 10 5 0 30 31 57 69 41 60 46
72 34 84 -28 27 -61 38 -112 37 -81 -3 -80 -3 -75 30 3 17 1 30 -4 30 -4 0 -7
6 -5 13 1 6 -4 11 -10 10 -7 -2 -13 2 -13 8 0 21 -74 41 -161 42 l-88 2 -41
-40 c-40 -39 -105 -135 -112 -165 -2 -8 -9 -21 -16 -28 -7 -8 -10 -17 -7 -22
3 -5 1 -11 -5 -15 -6 -4 -8 -11 -5 -16 4 -5 1 -9 -5 -9 -7 0 -10 -5 -8 -12 2
-6 -3 -20 -11 -29 -9 -10 -22 -26 -30 -36 -8 -10 -24 -29 -35 -42 -12 -13 -15
-21 -7 -16 8 4 -5 -11 -28 -35 -23 -24 -39 -45 -36 -48 2 -3 -3 -11 -13 -18
-9 -7 -17 -18 -17 -26 0 -7 -5 -13 -11 -13 -5 0 -30 -20 -55 -45 -29 -30 -53
-45 -69 -45 -23 0 -25 4 -24 45 1 25 4 56 7 70 3 14 8 34 11 45 2 11 9 33 15
48 6 16 8 33 5 39 -4 7 -2 8 4 4 7 -4 13 -1 13 8 2 24 4 29 17 54 7 12 10 22
7 22 -3 0 2 11 11 25 9 14 13 25 9 25 -4 0 -2 7 5 15 6 8 27 45 45 83 18 38
48 86 66 107 19 22 27 35 19 31 -10 -5 -9 -3 2 6 28 23 33 65 10 77 -11 6 -22
7 -26 4 -3 -3 -6 -1 -6 5 0 15 -159 13 -171 -2 -5 -6 -18 -22 -29 -35 -11 -13
-17 -28 -13 -34 3 -6 1 -7 -5 -3 -11 7 -14 3 -16 -26 -1 -7 -7 -19 -14 -26 -7
-8 -10 -18 -7 -23 4 -5 2 -9 -2 -9 -11 0 -34 -60 -27 -71 3 -5 1 -9 -5 -9 -8
0 -18 -29 -24 -67 0 -5 -6 -19 -13 -32 -7 -14 -10 -29 -7 -34 3 -6 1 -7 -5 -3
-7 4 -12 1 -12 -8 0 -9 -5 -16 -12 -16 -6 0 -9 -3 -6 -6 6 -5 -4 -17 -95 -113
-26 -28 -44 -51 -40 -51 4 -1 -3 -7 -17 -15 -14 -8 -22 -14 -19 -15 3 0 -22
-28 -55 -62 -59 -59 -105 -84 -90 -49 3 9 7 21 8 26 1 6 5 16 9 23 5 6 5 17 1
24 -4 6 -3 8 3 5 6 -4 13 6 17 23 3 17 15 50 26 74 11 25 20 48 20 51 0 9 107
223 131 261 11 19 18 34 15 34 -3 0 3 9 14 20 12 12 18 25 15 30 -4 6 -2 10 3
10 5 0 15 14 22 31 19 45 5 52 -112 55 -88 3 -148 8 -206 20 -7 1 -19 -4 -27
-13 -8 -8 -15 -12 -15 -8 0 3 -16 -6 -35 -21 -19 -14 -32 -31 -28 -37 3 -5 1
-7 -5 -4 -13 9 -62 -49 -62 -73 0 -11 10 -24 21 -31 17 -9 20 -8 13 3 -6 10
-5 11 8 1 8 -7 17 -11 19 -9 2 2 10 -2 17 -10 10 -11 8 -18 -11 -36 -49 -49
-106 -126 -99 -134 4 -5 3 -6 -1 -2 -12 9 -47 -23 -40 -36 3 -6 3 -8 -2 -4 -4
4 -33 -14 -64 -41 -80 -68 -82 -69 -77 -26 3 20 9 42 15 49 6 7 13 30 16 52 2
21 7 51 10 66 3 14 1 37 -4 50 -6 17 -3 34 11 61 18 36 18 41 4 71 -15 32 -60
74 -73 68 -3 -2 -9 1 -13 8 -8 13 -80 22 -160 20 -81 -3 -80 -3 -80 -12 0 -5
-4 -6 -10 -3 -25 16 -180 -106 -180 -141 0 -7 -4 -14 -9 -16 -5 -1 -11 -10
-13 -18 -2 -8 -9 -21 -16 -29 -7 -7 -11 -20 -8 -28 3 -8 2 -12 -2 -9 -4 2 -13
-8 -20 -23 -7 -15 -21 -37 -32 -49 -12 -12 -19 -22 -17 -22 3 0 -13 -19 -34
-42 -21 -23 -35 -46 -32 -51 3 -6 1 -7 -5 -3 -13 8 -35 -28 -24 -39 4 -5 2 -5
-5 -1 -12 6 -40 -31 -35 -46 1 -5 -1 -7 -6 -5 -4 1 -7 -1 -7 -5 0 -4 -10 -15
-23 -23 -12 -9 -20 -20 -18 -24 3 -4 -5 -7 -18 -7 -17 0 -22 5 -20 21 1 11 3
21 4 23 2 1 3 5 4 10 1 4 5 13 9 20 5 6 5 17 1 24 -4 6 -3 8 3 5 6 -4 14 7 18
26 4 17 8 34 9 37 1 3 4 10 7 15 4 6 12 26 18 47 17 51 67 141 91 163 11 10
20 24 20 32 0 7 5 13 10 13 6 0 10 7 10 15 0 8 4 15 9 15 15 0 20 39 6 50 -8
6 -26 13 -42 15 -15 2 -28 5 -28 6 0 5 -92 8 -112 3 -12 -2 -32 -14 -44 -27
-12 -12 -18 -16 -14 -8 5 8 4 12 -1 8 -5 -3 -18 -22 -29 -43 -11 -21 -29 -47
-40 -59 -28 -30 -50 -65 -47 -76 1 -5 -4 -8 -10 -7 -7 2 -14 -7 -16 -20 -2
-12 -8 -20 -13 -17 -5 4 -9 0 -9 -9 0 -8 -4 -16 -9 -18 -5 -1 -11 -10 -13 -18
-2 -8 -12 -23 -23 -33 -11 -10 -13 -16 -5 -12 8 4 4 -3 -10 -14 -14 -11 -21
-21 -15 -21 5 0 -1 -7 -13 -16 -27 -18 -38 -13 -27 13 5 10 9 20 10 23 1 3 8
21 16 40 7 19 12 38 11 43 -1 4 3 7 9 7 5 0 7 5 4 10 -3 6 -1 10 5 10 6 0 8 5
5 10 -3 6 -2 10 2 10 9 0 39 69 35 83 -1 4 2 7 8 7 5 0 10 4 10 9 0 5 9 28 19
52 11 24 20 48 20 53 -1 5 4 12 11 16 6 4 12 13 14 21 1 8 9 25 18 39 9 14 18
32 20 40 2 8 5 17 8 20 12 10 61 100 55 100 -3 0 3 10 14 22 11 11 18 25 15
30 -3 4 -1 8 5 8 11 0 27 39 22 55 -1 5 1 7 5 2 9 -8 45 43 38 54 -2 5 5 13
17 19 11 7 18 14 15 17 -3 3 2 12 10 20 21 22 14 45 -17 54 -22 5 -129 4 -199
-3 -28 -3 -77 -68 -65 -87 3 -5 0 -11 -5 -13 -6 -2 -12 -13 -13 -25 0 -12 -5
-19 -9 -17 -7 5 -12 -21 -5 -29 1 -2 -6 -12 -16 -22 -10 -9 -16 -24 -13 -31 3
-8 2 -14 -3 -14 -7 0 -34 -52 -36 -70 -1 -3 -9 -23 -18 -44 -10 -22 -15 -41
-13 -44 3 -2 -2 -11 -10 -19 -8 -9 -13 -22 -10 -30 4 -9 2 -11 -6 -7 -8 5 -9
2 -5 -9 3 -10 3 -17 -1 -17 -10 0 -33 -61 -26 -71 3 -5 1 -9 -4 -9 -6 0 -13
-7 -16 -16 -4 -10 -2 -13 7 -8 6 4 5 -1 -4 -12 -13 -17 -33 -55 -38 -76 -1 -4
-16 -22 -34 -41 -43 -47 -58 -66 -55 -72 2 -2 -7 -12 -20 -20 -12 -9 -20 -21
-16 -26 3 -5 0 -8 -7 -7 -7 2 -13 -3 -14 -11 0 -8 -10 -16 -23 -18 -20 -3 -22
0 -16 19 3 13 13 35 21 51 7 15 11 27 7 27 -4 0 -2 6 4 13 18 22 33 115 33
202 0 97 -62 165 -146 160 -51 -3 -89 -14 -100 -27 -5 -7 -17 -14 -26 -16 -20
-3 -20 26 -1 46 7 8 9 19 5 25 -3 7 -3 9 2 5 12 -11 55 59 53 86 -3 30 -21 34
-129 31 -75 -2 -82 -4 -111 -34 -17 -17 -28 -31 -25 -31 3 0 -5 -12 -18 -26
-14 -15 -22 -30 -19 -35 3 -5 1 -9 -4 -9 -12 0 -58 -86 -117 -220 -25 -58 -55
-114 -66 -126 -10 -11 -16 -24 -12 -29 5 -4 3 -5 -3 -2 -11 6 -91 -82 -86 -96
1 -5 -2 -6 -7 -2 -10 5 -56 -48 -56 -65 0 -5 -4 -12 -9 -17 -5 -5 -6 -2 -2 7
4 8 -2 4 -14 -10 -12 -14 -33 -38 -48 -54 -15 -17 -25 -35 -24 -40 2 -6 1 -8
-3 -4 -9 9 -45 -23 -39 -34 3 -5 0 -7 -8 -6 -7 2 -12 -3 -10 -9 1 -7 -5 -13
-13 -13 -8 0 -15 -5 -15 -12 0 -6 -3 -8 -7 -5 -3 4 -13 1 -21 -5 -8 -7 -21
-13 -31 -15 -21 -3 -63 25 -56 37 4 6 2 10 -3 10 -4 0 -9 21 -11 47 -1 26 -4
50 -7 54 -2 4 0 10 6 14 6 4 8 11 4 16 -3 5 0 8 8 7 7 -2 12 3 10 10 -1 6 1
11 5 10 17 -3 43 15 36 25 -4 6 0 8 10 4 9 -3 19 -2 22 3 4 6 32 28 64 49 116
79 272 245 255 272 -3 5 0 9 6 9 7 0 9 12 6 33 -5 32 -71 101 -88 91 -4 -3 -8
-2 -8 3 0 4 -15 16 -33 26 -37 22 -167 36 -167 18 0 -5 -6 -8 -14 -5 -9 3 -32
-12 -57 -37 -23 -23 -39 -36 -35 -28 4 8 -6 -2 -23 -21 -31 -35 -103 -145
-101 -155 0 -3 -9 -15 -19 -27 -11 -11 -18 -25 -15 -30 3 -5 1 -7 -4 -6 -5 2
-24 -15 -41 -37 -37 -47 -97 -116 -163 -188 -26 -28 -44 -56 -41 -61 3 -6 3
-8 -2 -4 -4 4 -15 0 -24 -10 -28 -32 -48 -33 -46 -3 1 15 5 32 9 39 4 7 5 16
2 21 -4 5 -2 11 4 13 6 2 11 17 13 35 1 17 6 29 10 26 5 -3 7 1 6 8 -3 17 3
32 54 139 22 47 46 89 53 95 21 17 64 87 64 105 0 32 -26 41 -115 42 -81 0
-90 -2 -129 -29 -22 -17 -40 -36 -38 -42 1 -7 -2 -10 -7 -7 -10 7 -53 -47 -46
-58 3 -3 2 -4 -2 -1 -9 7 -43 -47 -36 -58 3 -6 1 -7 -5 -3 -11 6 -16 -6 -13
-26 0 -5 -4 -8 -10 -8 -5 0 -7 -4 -4 -10 3 -5 2 -10 -2 -10 -5 0 -14 -9 -21
-21 -11 -17 -11 -20 0 -14 7 3 4 -1 -6 -9 -11 -9 -16 -16 -12 -16 4 0 -2 -13
-13 -29 -12 -16 -21 -35 -21 -43 0 -7 -7 -22 -15 -32 -8 -10 -12 -23 -9 -28 3
-4 -2 -15 -10 -24 -9 -9 -14 -20 -11 -25 4 -5 -1 -9 -10 -9 -13 0 -15 7 -9 38
4 20 11 45 16 55 5 9 6 17 2 17 -3 0 -2 6 3 13 6 6 9 20 8 30 -2 9 0 17 5 17
4 0 11 7 14 16 4 10 2 13 -7 8 -6 -4 -4 2 6 14 11 11 16 26 12 31 -3 6 -2 11
4 11 8 0 21 25 26 50 1 3 15 33 33 66 17 34 29 64 27 68 -3 3 -2 4 2 1 10 -7
93 112 93 134 0 36 -42 51 -145 51 -55 0 -62 -2 -88 -32 -15 -18 -25 -39 -22
-46 2 -7 1 -11 -4 -8 -11 7 -23 -22 -15 -35 3 -5 1 -9 -4 -9 -12 0 -34 -49
-27 -61 4 -5 2 -9 -4 -9 -9 0 -58 -116 -66 -158 -2 -12 -13 -41 -23 -66 -11
-24 -17 -48 -14 -52 4 -4 2 -4 -5 0 -14 8 -36 -27 -25 -39 4 -5 1 -5 -5 -1 -7
4 -13 2 -13 -3 0 -6 -11 -21 -25 -33 -14 -12 -25 -27 -25 -34 0 -6 -7 -14 -15
-18 -8 -3 -15 -12 -15 -20 0 -8 -5 -18 -12 -22 -7 -5 -8 -2 -3 7 4 8 -3 3 -17
-11 -13 -14 -23 -28 -21 -32 2 -4 -6 -9 -17 -13 -11 -4 -18 -10 -15 -15 5 -8
-55 -23 -63 -15 -18 18 5 149 46 254 12 30 18 59 15 64 -3 6 -2 7 3 4 9 -5 44
75 43 97 -1 5 4 12 11 16 6 4 12 16 13 28 0 11 5 18 11 15 6 -4 6 1 2 13 -4
10 -4 15 0 11 7 -7 45 47 48 70 1 7 6 16 11 20 4 4 5 1 1 -7 -4 -8 1 -4 12 10
11 13 18 28 16 32 -3 4 0 8 6 8 6 0 9 4 6 9 -4 5 -1 11 5 13 20 7 0 45 -29 56
-15 6 -58 11 -96 10 -67 0 -71 -1 -103 -36 -18 -19 -31 -38 -28 -40 2 -2 -3
-11 -11 -19 -8 -8 -12 -19 -9 -24 4 -5 2 -9 -2 -9 -9 0 -37 -65 -38 -85 0 -5
-4 -13 -8 -16 -5 -4 -10 -18 -10 -32 -1 -14 -4 -23 -6 -21 -4 4 -15 -30 -34
-101 -5 -20 -41 -75 -49 -75 -4 0 -8 -4 -8 -9 0 -6 -13 -24 -30 -42 -16 -18
-27 -36 -24 -41 3 -5 1 -7 -4 -6 -6 2 -10 -1 -10 -5 -1 -5 -12 -17 -27 -28
-14 -12 -22 -26 -18 -32 3 -7 3 -9 -1 -5 -10 8 -47 -23 -40 -34 3 -4 0 -8 -6
-8 -6 0 -33 -22 -59 -48 -27 -27 -69 -64 -95 -82 -25 -18 -46 -38 -46 -43 0
-6 -3 -7 -6 -4 -4 4 -20 -3 -35 -14 -35 -25 -60 -32 -124 -34 -39 -2 -53 1
-63 16 -7 11 -19 16 -25 13 -7 -4 -9 -4 -5 1 4 4 4 13 -1 19 -23 28 -37 116
-35 221 1 61 4 121 7 135 3 14 8 43 12 65 4 22 9 47 11 55 1 8 12 44 23 79 11
36 18 68 15 73 -3 4 -1 8 3 8 9 0 59 124 54 136 -1 4 1 10 6 13 4 3 28 47 53
96 25 50 50 96 57 103 13 13 17 28 14 45 -1 5 3 6 8 3 10 -7 27 32 22 49 -1 6
0 7 4 3 4 -4 30 23 58 60 28 37 54 69 59 70 4 2 6 8 2 13 -3 5 -1 9 4 9 6 0
37 26 70 58 32 33 67 62 76 65 10 4 15 11 12 15 -3 5 10 9 29 9 19 0 32 -4 29
-9 -3 -4 -1 -8 5 -8 5 0 15 -16 22 -35 7 -19 15 -35 19 -35 8 0 4 -126 -5
-139 -4 -7 -5 -15 -2 -18 3 -2 -1 -22 -8 -43 -7 -21 -11 -41 -8 -44 4 -3 1 -6
-6 -6 -8 0 -11 -7 -7 -15 3 -8 2 -15 -2 -15 -6 0 -24 -43 -35 -85 -2 -5 -11
-25 -20 -43 -10 -18 -15 -38 -11 -44 5 -7 3 -8 -6 -3 -10 6 -12 4 -7 -8 3 -10
2 -17 -3 -17 -8 0 -26 -41 -21 -49 2 -2 -1 -7 -7 -10 -16 -11 -61 -99 -54
-107 4 -4 2 -4 -4 -1 -11 6 -29 -18 -26 -34 0 -3 -4 -6 -11 -7 -7 0 -23 -3
-37 -5 -24 -3 -25 -1 -25 37 1 23 4 47 9 54 4 6 4 17 0 24 -4 7 -3 8 4 4 8 -4
12 1 13 13 2 29 3 33 17 57 6 12 8 24 5 28 -3 3 -1 6 5 6 7 0 11 3 10 8 -1 4
10 30 25 59 31 61 32 63 13 63 -14 0 -71 -88 -78 -120 -2 -8 -6 -17 -9 -20 -9
-8 -39 -70 -56 -115 -34 -93 -42 -175 -18 -198 9 -10 22 -14 28 -10 7 4 20 6
30 5 9 -2 17 2 17 8 0 6 4 9 9 5 5 -3 16 2 24 10 9 8 19 15 22 15 13 0 70 53
67 62 -1 5 1 7 6 4 10 -6 88 74 85 86 -2 5 1 7 5 5 17 -4 172 210 172 239 0 8
4 14 8 14 14 0 104 199 96 212 -4 7 -3 8 4 4 11 -7 16 7 15 42 -1 6 3 12 7 12
5 0 12 15 16 33 10 41 9 36 22 82 31 113 -28 181 -151 171 -81 -6 -114 -13
-142 -32 -22 -14 -25 -14 -45 6 -11 11 -26 18 -32 14 -6 -4 -8 -3 -5 3 9 14
-50 31 -108 30 -27 0 -70 -8 -95 -17z m2588 -810 c1 -2 6 -3 11 -4 5 0 13 -5
18 -10 5 -5 2 -6 -7 -2 -13 7 -13 6 0 -6 8 -7 17 -20 19 -28 5 -24 3 -122 -4
-155 -4 -16 -8 -39 -10 -50 -1 -11 -5 -27 -9 -35 -3 -8 -7 -26 -8 -40 -2 -14
-7 -28 -11 -31 -5 -4 -10 -18 -10 -33 -1 -14 -4 -26 -7 -26 -7 0 -35 -74 -29
-76 2 -1 -4 -10 -13 -20 -9 -11 -18 -26 -20 -34 -2 -8 -11 -23 -20 -34 -10
-10 -15 -24 -11 -29 3 -6 2 -8 -3 -5 -11 6 -54 -38 -45 -47 3 -4 2 -5 -4 -4
-5 2 -19 -1 -30 -7 -11 -6 -27 -10 -35 -9 -8 1 -21 3 -27 3 -7 1 -13 9 -13 17
0 14 -12 19 -32 16 -14 -2 -13 51 1 84 13 29 21 55 18 59 -1 1 4 10 11 19 8 9
11 21 7 27 -3 5 -1 10 5 10 6 0 8 5 5 10 -3 6 -2 10 3 10 9 0 28 53 20 56 -2
1 4 10 13 20 16 18 34 71 31 87 -1 4 3 7 9 7 5 0 7 5 4 10 -3 6 -1 10 5 10 7
0 10 7 6 15 -3 8 -1 15 3 15 10 0 47 90 43 103 -1 4 3 7 8 7 6 0 10 6 10 14 0
8 7 22 16 30 8 9 13 16 10 16 -3 0 5 10 17 23 18 19 42 26 55 17z m3258 -76
c0 -32 -4 -64 -9 -71 -5 -7 -6 -17 -2 -23 3 -5 2 -10 -3 -10 -9 0 -11 -8 -14
-55 -1 -14 -5 -25 -9 -25 -5 0 -6 -9 -4 -20 2 -11 -1 -22 -6 -25 -5 -4 -7 -11
-4 -16 4 -5 1 -9 -5 -9 -7 0 -9 -7 -6 -16 3 -8 2 -13 -3 -10 -8 5 -15 -5 -23
-32 -1 -4 -12 -18 -25 -32 -13 -14 -23 -30 -23 -37 0 -7 -4 -13 -10 -13 -5 0
-10 -6 -10 -13 0 -8 -11 -24 -25 -37 -14 -13 -23 -26 -20 -28 3 -3 -3 -11 -13
-19 -11 -10 -12 -12 -2 -8 10 4 9 2 -2 -8 -10 -8 -18 -18 -18 -23 0 -8 -27
-10 -60 -5 -8 1 -4 114 6 142 4 13 9 31 9 39 1 8 10 35 21 60 10 25 18 48 16
53 -1 4 3 7 9 7 6 0 9 7 5 15 -3 8 -1 15 4 15 6 0 10 5 10 11 0 6 9 24 21 40
11 16 17 33 14 39 -3 5 -2 10 2 10 11 0 49 62 45 73 -1 5 2 6 7 3 5 -4 12 2
16 13 3 11 13 22 21 25 9 3 12 11 8 18 -4 7 -4 10 0 6 5 -4 17 1 28 12 37 34
53 20 54 -46z m-3916 36 c16 -8 18 -15 10 -35 -5 -14 -7 -25 -4 -25 3 0 -4
-13 -16 -30 -12 -16 -18 -30 -15 -30 4 0 -1 -7 -9 -16 -9 -8 -13 -20 -10 -26
4 -6 2 -8 -4 -4 -6 3 -13 -3 -17 -14 -3 -11 -11 -20 -16 -20 -5 0 -9 -6 -9
-14 0 -8 -5 -18 -12 -22 -7 -5 -8 -3 -3 6 5 9 4 11 -3 6 -7 -4 -12 -11 -12
-16 0 -5 -12 -22 -27 -37 -14 -15 -23 -21 -19 -13 5 10 3 10 -6 -2 -14 -16
-34 -12 -33 7 0 6 6 20 13 31 6 12 8 24 5 28 -3 3 -1 6 5 6 6 0 9 7 5 17 -4
11 -3 14 5 9 7 -4 12 -2 12 6 0 7 10 33 22 58 22 43 27 50 56 85 7 8 10 15 7
15 -16 0 29 33 53 39 2 1 12 -4 22 -9z m2111 -25 c0 6 4 1 8 -10 4 -11 6 -49
4 -85 -6 -96 -6 -100 -17 -100 -5 0 -7 -3 -3 -6 3 -3 -1 -26 -8 -52 -8 -25
-12 -49 -9 -54 3 -4 1 -8 -4 -8 -5 0 -9 -6 -10 -12 -3 -34 -27 -94 -41 -103
-12 -7 -78 21 -88 38 -4 6 -1 7 8 3 8 -4 6 -1 -3 7 -10 8 -15 17 -11 20 3 4 2
7 -4 7 -6 0 -8 23 -6 58 6 90 7 102 16 102 5 0 6 4 2 9 -3 5 0 13 6 16 5 4 8
13 5 21 -3 8 -2 14 2 14 4 0 15 14 24 31 10 17 13 27 5 23 -6 -4 7 11 29 34
23 22 39 44 35 48 -3 4 -1 5 4 1 6 -3 17 -2 25 3 9 6 17 5 22 -3 4 -7 8 -7 9
-2z m-237 -441 c3 -8 13 -14 21 -14 9 0 14 -4 11 -9 -5 -8 1 -13 29 -22 6 -1
16 -9 23 -16 8 -7 17 -11 21 -9 15 9 8 -29 -8 -48 -11 -14 -12 -17 -2 -11 10
5 12 4 7 -3 -4 -7 -13 -12 -21 -12 -8 0 -17 -5 -21 -12 -5 -7 -2 -8 7 -3 8 5
11 4 6 -1 -5 -5 -12 -9 -15 -9 -4 0 -14 -5 -22 -10 -18 -12 -61 -14 -54 -3 3
4 0 8 -6 8 -6 0 -8 5 -5 10 3 6 2 10 -3 10 -5 0 -9 6 -9 13 -3 59 -2 109 6
159 2 12 29 -2 35 -18z"/>
<path d="M6358 6715 c-43 -30 -79 -72 -81 -95 -1 -10 -5 -16 -9 -14 -4 3 -8
-1 -9 -8 0 -7 -2 -23 -5 -35 -2 -13 0 -23 6 -23 5 0 7 -6 4 -13 -3 -8 8 -28
25 -45 35 -39 89 -44 121 -12 11 11 20 17 20 13 0 -5 16 14 35 41 19 27 32 53
29 57 -3 5 0 9 6 9 24 0 4 81 -28 112 -38 38 -71 42 -114 13z"/>
<path d="M10995 6714 c-49 -33 -71 -59 -91 -111 -19 -48 -14 -78 18 -116 49
-56 95 -52 161 16 34 35 39 44 36 63 0 4 4 10 10 13 15 10 26 71 13 71 -6 0
-9 6 -6 14 6 16 -54 68 -84 73 -11 1 -37 -9 -57 -23z"/>
</g>
</svg>
